<?xml version="1.0" encoding="UTF-8" standalone="no"?>
<svg
   xmlns:dc="http://purl.org/dc/elements/1.1/"
   xmlns:cc="http://creativecommons.org/ns#"
   xmlns:rdf="http://www.w3.org/1999/02/22-rdf-syntax-ns#"
   xmlns:svg="http://www.w3.org/2000/svg"
   xmlns="http://www.w3.org/2000/svg"
   xmlns:sodipodi="http://sodipodi.sourceforge.net/DTD/sodipodi-0.dtd"
   xmlns:inkscape="http://www.inkscape.org/namespaces/inkscape"
   viewBox="0 0 160 120"
   height="120"
   width="160"
   xml:space="preserve"
   id="svg_logo_editado"
   version="1.1">
  <metadata
     id="metadata8">
    <rdf:RDF>
      <cc:Work
         rdf:about="">
        <dc:format>image/svg+xml</dc:format>
        <dc:type
           rdf:resource="http://purl.org/dc/dcmitype/StillImage" />
        <dc:title></dc:title>
      </cc:Work>
    </rdf:RDF>
  </metadata>
  <defs
     id="defs6" />
  <g
     id="g1215"
     transform="matrix(1,0,0,0.99955025,0,-0.00269671)">
    <path
       id="path184"
       style="opacity:1;fill:#d4098d;fill-opacity:1;fill-rule:nonzero;stroke:none;stroke-width:0.133333"
       d="m 28.083333,64.32403 c 0,0 26.363599,34.742665 61.311465,55.18 0,0 58.041202,-52.930667 67.033202,-54.157334 0,0 -47.364,-31.010666 -62.697336,-65.34399808 0,0 -40.627999,26.64266608 -65.647331,64.32133208" />
    <path
       id="path186"
       style="fill:#231f20;fill-opacity:1;fill-rule:nonzero;stroke:none;stroke-width:0.133333"
       d="M 24.494141,87.630859 1.1074219,96.697266 H 17.767578 57.957031 l 0.05078,0.05469 57.103519,-0.05469 h 44.95898 16.66016 l -23.38672,-9.066407 h -27.61328 c -1.02133,0.857333 -2.04441,1.721844 -3.06641,2.589844 h 30.67969 l 5.7207,2.869141 H 119.29883 54.667969 18.775391 l 5.71875,-2.869141 h 27.15039 c -0.9068,-0.873333 -1.787857,-1.736511 -2.65039,-2.589844 z" />
  </g>
</svg>